<?xml version="1.0" encoding="UTF-8" standalone="no"?>
<svg id="svg" width="512" height="512" xmlns="http://www.w3.org/2000/svg">
      
      <!-- Random satellite scatter -->
      <circle cx="120" cy="292" r="8" fill="#D7263D" opacity="0.7"></circle>
      <circle cx="382" cy="414" r="8" fill="#D7263D" opacity="0.7"></circle>
      <circle cx="237" cy="199" r="8" fill="#D7263D" opacity="0.7"></circle>
      <circle cx="400" cy="264" r="8" fill="#D7263D" opacity="0.7"></circle>
      <circle cx="264" cy="389" r="8" fill="#D7263D" opacity="0.7"></circle>
      <circle cx="351" cy="257" r="8" fill="#D7263D" opacity="0.7"></circle>
      
      <circle cx="132" cy="154" r="8" fill="#17A684" opacity="0.7"></circle>
      <circle cx="388" cy="310" r="8" fill="#17A684" opacity="0.7"></circle>
      <circle cx="411" cy="150" r="8" fill="#17A684" opacity="0.7"></circle>
      <circle cx="197" cy="119" r="8" fill="#17A684" opacity="0.7"></circle>
      <circle cx="142" cy="357" r="8" fill="#17A684" opacity="0.7"></circle>
      
      <circle cx="207" cy=" 88" r="8" fill="#c0c0c0" opacity="0.5"></circle>
      <circle cx="167" cy="187" r="8" fill="#c0c0c0" opacity="0.5"></circle>
      <circle cx="281" cy="253" r="8" fill="#c0c0c0" opacity="0.5"></circle>
      <circle cx="118" cy="324" r="8" fill="#c0c0c0" opacity="0.5"></circle>
      
      
      <rect x="64" y="64" rx="108" ry="108" width="384" height="384" style="fill:none; stroke-width:24; stroke: rgb(255,255,255)"></rect>
      <circle cx="256" cy="256" r="96" style="fill:none; stroke-width:24; stroke: rgb(255,255,255)"></circle>
      
      <!-- Satellite arc -->
      <path d="M 384 448 C 64 176, 40 20, 448 172" stroke="white" stroke-width="4" fill="transparent"></path>
      
      <!-- Fading silver outline is made by multiple circles: -->
      <circle cx="368" cy="144" r="16" style="stroke-width: 64; stroke: #fff; stroke-opacity: 0.1"></circle>
      <circle cx="368" cy="144" r="16" style="stroke-width: 60; stroke: #fff; stroke-opacity: 0.1"></circle>
      <circle cx="368" cy="144" r="16" style="stroke-width: 56; stroke: #fff; stroke-opacity: 0.1"></circle>
      <circle cx="368" cy="144" r="16" style="stroke-width: 52; stroke: #fff; stroke-opacity: 0.1"></circle>
      <circle cx="368" cy="144" r="16" style="stroke-width: 48; stroke: #fff; stroke-opacity: 0.1"></circle>
      <circle cx="368" cy="144" r="16" style="stroke-width: 44; stroke: #fff; stroke-opacity: 0.1"></circle>
      <circle cx="368" cy="144" r="16" style="stroke-width: 40; stroke: #fff; stroke-opacity: 0.1"></circle>
      <circle cx="368" cy="144" r="16" style="stroke-width: 36; stroke: #fff; stroke-opacity: 0.1"></circle>
      <circle cx="368" cy="144" r="16" style="stroke-width: 32; stroke: #fff; stroke-opacity: 0.1"></circle>
      <circle cx="368" cy="144" r="16" style="stroke-width: 28; stroke: #fff; stroke-opacity: 0.1"></circle>
      <circle cx="368" cy="144" r="16" style="stroke-width: 24; stroke: #fff; stroke-opacity: 0.1"></circle>
      <circle cx="368" cy="144" r="16" style="stroke-width: 20; stroke: #fff; stroke-opacity: 0.1"></circle>
      <circle cx="368" cy="144" r="16" style="stroke-width: 16; stroke: #fff; stroke-opacity: 0.1"></circle>
      <circle cx="368" cy="144" r="16" style="stroke-width: 12; stroke: #fff; stroke-opacity: 0.1"></circle>
      <circle cx="368" cy="144" r="16" style="stroke-width: 10; stroke: #fff; stroke-opacity: 0.1"></circle>
      <circle cx="368" cy="144" r="16" style="stroke-width: 8; stroke: #fff; stroke-opacity: 0.1"></circle>
      <circle cx="368" cy="144" r="16" style="stroke-width: 6; stroke: #fff; stroke-opacity: 0.1"></circle>
      <circle cx="368" cy="144" r="16" style="stroke-width: 4; stroke: #fff; stroke-opacity: 0.1"></circle>
      <circle cx="368" cy="144" r="16" style="stroke-width: 2; stroke: #fff; stroke-opacity: 0.1"></circle>
      
      <circle cx="368" cy="144" r="16" style="fill: #FFF; 
        stroke-width: 1; stroke: #FAFAFA; stroke-opacity: 1"></circle>
      
      <!-- Frame -->
      <rect x="64" y="64" rx="108" ry="108" width="384" height="384" style="fill:none; stroke-width:24; stroke: rgb(255,255,255)"></rect>
      <circle cx="256" cy="256" r="96" style="fill:none; stroke-width:24; stroke: rgb(255,255,255)"></circle>
    </svg>